<svg t="1636539098755" class="icon" viewBox="0 0 1137 1024" version="1.1" xmlns="http://www.w3.org/2000/svg" p-id="4425" width="200" height="200"><path d="M602.79101563 804.28027344l-79.80468751-79.71679688a27.02636719 27.02636719 0 0 1 0-38.36425781 27.02636719 27.02636719 0 0 1 38.36425782 0l82.04589843 82.04589844 37.92480469-33.44238281-84.28710937-84.28710938a27.02636719 27.02636719 0 0 1 0-38.36425781 27.02636719 27.02636719 0 0 1 38.36425781 0l86.74804688 86.74804687 32.08007812-28.125L665.19335938 581.78515625a27.02636719 27.02636719 0 0 1-1e-8-38.36425781 27.02636719 27.02636719 0 0 1 38.36425782 0L794.83203125 634.6953125c5.88867188-5.2734375 9.79980469-8.96484375 10.98632813-10.28320313 0.57128906-0.52734375 28.25683594-36.2109375 2.68066406-61.78710937l-184.13085938-184.13085938a932.51953125 932.51953125 0 0 1-40.64941406 38.67187501C535.77441406 459.265625 460.14453125 449.15820312 407.41015625 393.74316406a26.80664063 26.80664063 0 0 1 0.52734375-37.79296875L501.23339844 262.65429687c-22.32421875-14.94140625-46.36230469-26.3671875-66.66503907-36.16699218a214.84863281 214.84863281 0 0 0-15.99609374-7.47070313l-4.79003907-2.63671875c-34.05761719-17.05078125-43.15429688-18.6328125-52.734375-9.05273437l-172.04589843 173.14453125c-20.21484375 20.21484375-18.6328125 31.94824219-17.57812501 43.63769531 0 1.0546875 0 1.62597656 0.52734375 2.63671875 2.63671875 6.94335938 17.578125 24.52148438 25.57617188 34.14550781 3.73535156 4.79003906 7.99804688 9.58007813 11.20605469 13.84277344 14.37011719 18.10546875 23.95019531 34.05761719 33.53027343 50.09765625 14.94140625 25.00488281 28.78417969 48.42773438 60.20507813 79.84863281l216.78222656 216.82617188c9.05273438 9.05273438 20.78613281 14.89746094 31.9921875 16.47949218 7.95410156 1.09863281 14.89746094-0.52734375 18.6328125-3.69140625 4.30664063-4.35058594 15.73242188-14.72167969 32.87109375-30.01464843z m252.33398437-270.703125l74.35546875-74.26757813c21.84082031-21.88476563 4.79003906-48.515625-13.88671875-67.1484375L715.90625 192.38574219c-15.99609375-15.95214844-27.15820313-20.21484375-33.57421875-21.26953125-4.79003906-0.57128906-11.68945313-0.57128906-21.26953125 9.05273437l-193.359375 193.359375c28.21289063 18.10546875 60.20507813 20.21484375 80.41992188 2.63671875 34.62890625-30.32226563 84.15527344-84.15527344 84.68261718-84.68261718a27.02636719 27.02636719 0 0 1 38.36425782-1.58203125c11.16210938 10.10742188 11.73339844 27.15820313 1.58203125 38.3203125l-10.546875 11.25L846.86328125 524.3046875c2.98828125 2.98828125 5.71289063 6.15234375 8.21777344 9.36035156z m-314.73632813-309.99023438l81.73828126-81.73828125c37.265625-37.30957031 86.79199219-33.046875 132.09960937 12.26074219L953.95800781 353.796875c48.47167969 48.47167969 53.7890625 103.88671875 13.84277344 143.83300781L873.36230469 592.06835938c-0.21972656 5.22949219-0.87890625 10.50292969-1.97753906 15.82031249-4.79003906 23.42285156-17.00683594 44.73632813-27.15820313 54.84375-5.84472656 5.88867188-39.41894531 35.15625-97.99804687 86.83593751-56.99707031 50.09765625-127.88085938 112.41210938-137.98828125 122.51953125-12.74414063 13.31542969-31.42089844 20.78613281-52.16308594 20.78613281-3.73535156 0-7.99804688 0-11.73339844-0.52734375a111.40136719 111.40136719 0 0 1-63.36914062-31.9921875L264.1484375 643.04492188c-36.2109375-36.2109375-53.26171875-64.99511719-68.68652344-90.00000001-9.05273438-14.94140625-17.578125-29.31152344-29.31152343-44.25292968-3.20800781-4.26269531-6.94335938-8.48144531-10.63476563-12.74414063-22.41210938-27.20214844-36.25488281-44.78027344-37.30869141-62.84003906 0-1.09951172 0-2.19726563-0.52734375-3.20888672-1.58203125-15.99609375-5.31738281-49.5703125 33.00292969-87.890625l173.14453125-173.14541016c38.89072266-38.84765625 84.68261719-16.5234375 115.04882813-1.05468749l4.83398437 2.109375c4.74609375 2.15332031 10.10654297 4.83398438 14.85263672 7.47070312 24.43359375 11.99707031 54.00878906 26.05957031 81.82617188 46.0546875z" p-id="4426"></path></svg>
