<svg t="1636538976812" class="icon" viewBox="0 0 1024 1024" version="1.1" xmlns="http://www.w3.org/2000/svg" p-id="11448" width="200" height="200"><path d="M215.36914062 808.63085938h593.26171875c54.38232422 0 98.87695313-44.49462891 98.87695313-98.87695313s-44.49462891-98.87695313-98.87695313-98.87695313H610.87695313v-19.77539062C699.86621094 551.55078125 759.19238281 462.56152344 759.19238281 363.68457031 759.19238281 225.25683594 650.42773438 116.4921875 512 116.4921875S264.80761719 225.25683594 264.80761719 363.68457031c0 98.87695313 59.32617188 187.86621094 148.31542968 227.41699219V610.87695313H215.36914062C160.98681641 610.87695313 116.4921875 655.37158203 116.4921875 709.75390625s44.49462891 98.87695313 98.87695313 98.87695313z m1e-8-148.31542969h247.19238281V556.49462891l-29.66308594-9.88769532C358.74072266 512 314.24609375 442.78613281 314.24609375 363.68457031c0-108.76464844 88.98925781-197.75390625 197.75390625-197.75390625s197.75390625 88.98925781 197.75390625 197.75390625c0 79.1015625-44.49462891 148.31542969-118.65234375 182.92236328L561.43847656 556.49462891V660.31542969h247.19238282c29.66308594 0 49.43847656 19.77539063 49.43847656 49.43847656s-19.77539063 49.43847656-49.43847657 49.43847656H215.36914062c-29.66308594 0-49.43847656-19.77539063-49.43847656-49.43847656s19.77539063-49.43847656 49.43847657-49.43847656z m667.41943359 197.75390625H141.21142578c-14.83154297 0-24.71923828 9.88769531-24.71923828 24.71923828s9.88769531 24.71923828 24.71923828 24.71923828h741.57714844c14.83154297 0 24.71923828-9.88769531 24.71923828-24.71923828s-9.88769531-24.71923828-24.71923828-24.71923828z" p-id="11449"></path></svg>
