<svg t="1633931844394" class="icon" viewBox="0 0 1236 1024" version="1.1" xmlns="http://www.w3.org/2000/svg" p-id="5819" width="200" height="200"><path d="M189.29771698 351.86386259h841.44842298V133.89543537a38.28618467 38.28618467 0 0 0-38.25205134-38.25318913h-122.75472498v64.72697743h96.28093781v126.76766265H189.29771698V160.36922367h96.3127956v-64.7281152H162.82506761A38.28618467 38.28618467 0 0 0 124.57074072 133.89543537v700.21506731a38.28618467 38.28618467 0 0 0 38.25318912 38.25432802H488.6592746v-64.7281152H189.29771698z" p-id="5820"></path><path d="M382.70154589 223.63984554a32.36291925 32.36291925 0 0 0 32.3629204-32.36405705V61.82183479a32.36291925 32.36291925 0 0 0-64.72697741 0v129.4539537a32.36291925 32.36291925 0 0 0 32.36405701 32.36405705z m97.08989668-127.9975993h195.76585331v64.72697743h-195.76585331zM772.64833033 223.63984554a32.36291925 32.36291925 0 0 0 32.36291925-32.36405705V61.82183479a32.36291925 32.36291925 0 0 0-64.7258385 0v129.4539537a32.36291925 32.36291925 0 0 0 32.36291925 32.36405705z m60.42276751 187.54541681a291.27082667 291.27082667 0 1 0 291.27082666 291.27082667 291.59395555 291.59395555 0 0 0-291.27082667-291.27082667z m0 517.81467704a226.54385038 226.54385038 0 1 1 226.54271146-226.54271259 226.80326258 226.80326258 0 0 1-226.54271146 226.54271259z" p-id="5821"></path><path d="M951.39190621 670.99883973h-86.89655465V548.21225812a32.36291925 32.36291925 0 0 0-64.72697744 0v155.15063978a32.36291925 32.36291925 0 0 0 32.36405818 32.36291925h119.25947391a32.36291925 32.36291925 0 1 0 0-64.72697742z" p-id="5822"></path></svg>
