<svg t="1633936409964" class="icon" viewBox="0 0 1024 1024" version="1.1" xmlns="http://www.w3.org/2000/svg" p-id="1738" width="200" height="200"><path d="M237.714 877.714h548.572v-99.4a18.286 18.286 0 0 0-4.846-12.399L627.2 598.821a128 128 0 0 1 0-173.642l154.24-167.094a18.286 18.286 0 0 0 4.846-12.398v-99.401H237.714v99.4a18.286 18.286 0 0 0 4.846 12.399L396.8 425.179a128 128 0 0 1 0 173.642L242.56 765.915a18.286 18.286 0 0 0-4.846 12.398v99.401z m603.429 0h45.714a27.429 27.429 0 0 1 0 54.857H137.143a27.429 27.429 0 0 1 0-54.857h45.714v-99.4a73.143 73.143 0 0 1 19.383-49.61l154.258-167.095a73.143 73.143 0 0 0 0-99.218l-154.24-167.095a73.143 73.143 0 0 1-19.4-49.61V128a36.571 36.571 0 0 1 36.57-36.571h585.143A36.571 36.571 0 0 1 841.143 128v117.687a73.143 73.143 0 0 1-19.383 49.609L667.502 462.391a73.143 73.143 0 0 0 0 99.218l154.24 167.095a73.143 73.143 0 0 1 19.4 49.61v99.4z m-536.32-48.603a27.429 27.429 0 0 1-24.503-49.079 518.09 518.09 0 0 1 463.36 0 27.429 27.429 0 0 1-24.503 49.079 463.232 463.232 0 0 0-414.354 0zM292.57 265.143a27.429 27.429 0 0 1 0-54.857H731.43a27.429 27.429 0 0 1 0 54.857H292.57z" p-id="1739"></path></svg>
