<svg t="1662710733202" class="icon" viewBox="0 0 1025 1024" version="1.1" xmlns="http://www.w3.org/2000/svg" p-id="3096" width="200" height="200"><path d="M512.653762 1023.998047A511.791377 511.791377 0 0 1 313.345574 40.47724a512.105864 512.105864 0 0 1 398.616376 943.45886 508.786731 508.786731 0 0 1-199.308188 40.061947z m0-943.45886C274.285175 80.539187 80.986279 273.838083 80.986279 512.20667s193.298896 431.667483 431.667483 431.667482 431.667483-194.300445 431.667482-431.667482S750.0208 80.539187 512.653762 80.539187z" p-id="3097"></path><path d="M834.150889 873.765744a40.061947 40.061947 0 0 1-28.043363-12.018584L162.111722 218.752905a40.36742 40.36742 0 0 1 57.088275-57.088275l643.995804 643.995804a40.061947 40.061947 0 0 1-28.043363 68.10531z" p-id="3098"></path></svg>
