<svg t="1636538930539" class="icon" viewBox="0 0 1024 1024" version="1.1" xmlns="http://www.w3.org/2000/svg" p-id="11311" width="200" height="200"><path d="M525.90457153 627.87142945l4.63485719-18.53942872c0-4.63485718 0-4.63485718-4.63485719-4.63485718h-27.80914306c-4.63485718 0-4.63485718 0-4.63485719 4.63485718l4.63485719 18.53942872v9.26971435L465.65142823 841.07485962c0 4.63485718 0 9.26971435 4.63485717 13.90457153l32.44400025 23.17428589c4.63485718 4.63485718 9.26971435 4.63485718 13.90457153 0l32.44400024-23.17428589c4.63485718-4.63485718 9.26971435-9.26971435 9.26971435-13.90457153l-32.44400024-203.93371582V627.87142945z" p-id="11312"></path><path d="M613.96685791 553.7137146C674.22000122 516.63485718 720.568573 451.74685669 720.568573 372.95428467c0-115.87142945-92.69714356-208.568573-208.568573-208.568573S303.431427 257.08285523 303.431427 372.95428467c0 78.79257202 41.7137146 143.68057251 106.60171509 180.75942993C280.25714112 595.4274292 187.55999756 715.93371583 187.55999756 859.61428833c0 13.90457153 9.26971435 23.17428589 23.17428588 23.17428589s23.17428589-9.26971435 23.17428589-23.17428589c0-152.95028687 125.1411438-278.09143067 278.09143067-278.09143067s278.09143067 125.1411438 278.09143066 278.09143067c0 13.90457153 9.26971435 23.17428589 23.1742859 23.17428589s23.17428589-9.26971435 23.17428588-23.17428589c0-143.68057251-92.69714356-264.18685913-222.47314453-305.90057373zM349.77999878 372.95428467c0-88.06228638 74.15771484-162.22000122 162.22000122-162.22000123s162.22000122 74.15771484 162.22000122 162.22000123-74.15771484 162.22000122-162.22000122 162.22000122-162.22000122-74.15771484-162.22000122-162.22000122z" p-id="11313"></path></svg>
