<svg t="1633936331381" class="icon" viewBox="0 0 1024 1024" version="1.1" xmlns="http://www.w3.org/2000/svg" p-id="1328" width="200" height="200"><path d="M1018.113011 1024l-291.297431-83.225837-436.229148 72.707858-284.699443-122.019762V378.98726l235.636539 100.984803-28.479944 66.46187-134.854737-57.796887v355.149306l221.413568 94.884815 431.393157-71.89486 214.815581 61.37788V569.537888l-123.387759-35.258932 19.859961-69.522864 175.829656 50.238902V1024z" p-id="1329"></path><path d="M530.075965 848.340343l-26.446949-28.366945A2291.065525 2291.065525 0 0 1 356.426304 641.770747C313.350388 583.65886 278.906455 530.245964 254.063504 483.001057c-33.202935-63.117877-49.346904-114.712776-49.346904-157.641692a325.359365 325.359365 0 1 1 650.717729 0c0 42.929916-16.143968 94.523815-49.346903 157.640692-24.852951 47.244908-59.286884 100.657803-102.3628 158.76969a2291.065525 2291.065525 0 0 1-147.202713 178.202651z m0-776.036484c-139.531727 0-253.057506 113.524778-253.057506 253.056506 0 56.677889 48.826905 153.7547 137.498731 273.391466 44.058914 59.445884 88.422827 111.649782 115.558775 142.513721 27.236947-30.976939 71.81586-83.462837 115.953773-143.03372 88.411827-119.399767 137.102732-216.283578 137.102732-272.871467 0-139.531727-113.525778-253.056506-253.056505-253.056506z" p-id="1330"></path><path d="M530.075965 506.115011c-99.663805 0-180.755647-81.090842-180.755647-180.754646s81.091842-180.754647 180.755647-180.754647S710.829612 225.696559 710.829612 325.360365s-81.091842 180.754647-180.754647 180.754646z m0-289.207435A108.452788 108.452788 0 1 0 638.528753 325.361365a108.576788 108.576788 0 0 0-108.452788-108.452789z" p-id="1331"></path></svg>
