<svg t="1636524660054" class="icon" viewBox="0 0 1024 1024" version="1.1" xmlns="http://www.w3.org/2000/svg" p-id="5426" width="200" height="200"><path d="M915.078 855.153c34.133-59.407 15.227-105.026-45.22-150.679-71.058-53.66-140.502-89.762-190.434-31.94 0 0-52.99 63.086-208.928-84.535C289.167 415.148 365.27 353.844 365.27 353.844c63.061-63.402 22.977-110.696-29.915-182.334-52.888-71.633-106.314-94.306-183.013-32.698C4.54 257.54 212.95 536.311 318.32 644.71l-0.004 0.004s160.234 165.741 261.066 220.92l53.942 30.158c77.366 39.702 164.267 57.876 225.446 21.01 0 0 29.492-15.165 56.307-61.65z" p-id="5427"></path><path d="M568.699 357.973h-46.446c-10.227 0-18.519-8.291-18.519-18.519s8.292-18.52 18.52-18.52h46.445c10.228 0 18.519 8.292 18.519 18.52s-8.291 18.519-18.52 18.519zM671.585 357.973H625.14c-10.228 0-18.52-8.291-18.52-18.519s8.292-18.52 18.52-18.52h46.446c10.228 0 18.52 8.292 18.52 18.52s-8.292 18.519-18.52 18.519zM774.47 357.973h-46.446c-10.228 0-18.519-8.291-18.519-18.519s8.291-18.52 18.52-18.52h46.446c10.227 0 18.519 8.292 18.519 18.52s-8.29 18.519-18.52 18.519zM568.699 425.047h-46.446c-10.227 0-18.519-8.291-18.519-18.519s8.292-18.519 18.52-18.519h46.445c10.228 0 18.519 8.291 18.519 18.519s-8.291 18.519-18.52 18.519zM671.585 425.047H625.14c-10.228 0-18.52-8.291-18.52-18.519s8.292-18.519 18.52-18.519h46.446c10.228 0 18.52 8.291 18.52 18.519s-8.292 18.519-18.52 18.519zM774.47 425.047h-46.446c-10.228 0-18.519-8.291-18.519-18.519s8.291-18.519 18.52-18.519h46.446c10.227 0 18.519 8.291 18.519 18.519s-8.29 18.519-18.52 18.519zM568.699 494.679h-46.446c-10.227 0-18.519-8.291-18.519-18.519s8.292-18.519 18.52-18.519h46.445c10.228 0 18.519 8.291 18.519 18.519s-8.291 18.519-18.52 18.519zM671.585 494.679H625.14c-10.228 0-18.52-8.291-18.52-18.519s8.292-18.519 18.52-18.519h46.446c10.228 0 18.52 8.291 18.52 18.519s-8.292 18.519-18.52 18.519zM774.47 494.679h-46.446c-10.228 0-18.519-8.291-18.519-18.519s8.291-18.519 18.52-18.519h46.446c10.227 0 18.519 8.291 18.519 18.519s-8.29 18.519-18.52 18.519zM671.585 568.407H625.14c-10.228 0-18.52-8.291-18.52-18.519s8.292-18.519 18.52-18.519h46.446c10.228 0 18.52 8.291 18.52 18.519s-8.292 18.519-18.52 18.519z" p-id="5428"></path></svg>
