<svg t="1636524620008" class="icon" viewBox="0 0 1024 1024" version="1.1" xmlns="http://www.w3.org/2000/svg" p-id="5154" width="200" height="200"><path d="M893.3 816.7c-0.1-177.5-282.2-206-280.8-289.4 0.3-5.6 1.6-50.9 13.3-72.1 10.9-19.9 63.9-106.2 63.9-181.6 0-115.7-73.1-209.4-178.9-209.4S331.9 158 331.9 273.7c0 75.4 49.3 156.1 63.9 181.6 13.8 24 13.7 67.9 13.3 72.1-1.4 80.2-280.2 98-280.9 289.4h-0.9v113.5c0 15.4 11.5 27.9 25.6 27.9h284.5l44.8-281.7-37.3-64.9c-4-5.8-0.2-14.1 6.4-14.1h121.8c6.6 0 10.3 8.3 6.4 14.1l-37.1 64.6h0.1l44.8 282h281.4c14.1 0 25.5-12.6 25.5-28V816.7h-0.9z" p-id="5155"></path></svg>
