<svg t="1633931730051" class="icon" viewBox="0 0 1024 1024" version="1.1" xmlns="http://www.w3.org/2000/svg" p-id="3349" width="200" height="200"><path d="M290.979 369.231a142.579 142.579 0 0 1-142.437-142.389A142.579 142.579 0 0 1 290.98 84.216 142.579 142.579 0 0 1 433.558 226.7c0 78.631-63.948 142.579-142.58 142.579z m0-229.926A87.536 87.536 0 0 0 203.63 226.7c0 48.126 39.269 87.395 87.395 87.395A87.536 87.536 0 0 0 378.42 226.7a87.536 87.536 0 0 0-87.395-87.395z m449.906 229.926a142.579 142.579 0 0 1-142.58-142.436c0-78.631 63.995-142.579 142.579-142.579 78.585 0 142.58 63.9 142.58 142.484 0 78.631-63.948 142.579-142.58 142.579z m0-229.926A87.49 87.49 0 0 0 653.49 226.7c0 48.126 39.22 87.395 87.394 87.395A87.536 87.536 0 0 0 828.28 226.7a87.536 87.536 0 0 0-87.395-87.395z m-224.621 565.2h-6.633l3.364-3.173z m82.09-84.458V551.6c0-78.631 63.899-142.579 142.53-142.579A142.721 142.721 0 0 1 883.32 551.6v381.505l-4.737 4.737H602.947l-4.737-4.737V694.7l-66.647 65.226a27.474 27.474 0 0 1-38.7-0.473L425.6 694.558v232.484l-4.737 4.738H145.37l-4.738-4.738v-381.41c0-78.632 63.9-142.58 142.579-142.58S425.695 467 425.695 545.633l-1.421 69.252 88.768 86.447z m-229.597-71.432c0-48.173-39.268-87.395-87.394-87.395s-87.395 39.222-87.395 87.395V879.72h174.789z m459.474 0a87.536 87.536 0 0 0-87.348-87.395 87.536 87.536 0 0 0-87.394 87.395V879.72h174.789z m4.878 331.105l-0.094 4.738z" p-id="3350"></path></svg>
